<?xml version="1.0" encoding="UTF-8"?><svg id="Layer_2" xmlns="http://www.w3.org/2000/svg" xmlns:xlink="http://www.w3.org/1999/xlink" viewBox="0 0 203.5 199.2"><defs><style>.cls-1{clip-path:url(#clippath);}.cls-2,.cls-3,.cls-4,.cls-5,.cls-6{fill:none;}.cls-2,.cls-7,.cls-8,.cls-9,.cls-10,.cls-11,.cls-12,.cls-13,.cls-14,.cls-15,.cls-16{stroke-width:0px;}.cls-3,.cls-4{stroke-width:2.5px;}.cls-3,.cls-6{stroke:#eaaf5b;}.cls-4,.cls-5{stroke:#a03224;}.cls-5,.cls-6{stroke-width:2.4px;}.cls-7{fill:#36a430;}.cls-8{fill:#d28e7c;}.cls-9{fill:#cb5139;}.cls-10{fill:#c4732e;}.cls-11{fill:#e2bfbb;}.cls-12{fill:#a03224;}.cls-13{fill:#efc24b;}.cls-14{fill:#f1e0de;}.cls-15{fill:#eaaf5b;}.cls-16{fill:#eacac1;}</style><clipPath id="clippath"><path class="cls-2" d="M101.4,72.7s3.7-6.8,8-.8,1.5,2.7,2,4.5c2.2,8-.2,20.7-22.6,17.9-12.8-4.7-11.7-7-11.7-7l1-2,11.7,5.3s16-2.3,13-8.5c-.7-1.6-1.2-2.9-1.5-4.1-.8-3.5,0-5.3,0-5.3Z"/></clipPath></defs><g id="Layer_3"><path class="cls-15" d="M15.7,63l1.2-4.8c.2-.9,6-22.4,40.5-41.8C73.8,7.3,88.1,2.3,100.1,1.6c9.7-.6,14.7,1.9,16,2.7l3.1,1.9,10.2,137.7L15.7,63Z"/><path class="cls-10" d="M131.2,147.1L14,63.6l1.4-5.7c.2-.9,6.2-23.1,41.3-42.8C73.3,5.8,87.8.8,100.1,0c10.2-.6,15.5,2.1,16.8,2.9l3.8,2.3,10.5,141.8ZM17.5,62.3l110.1,78.4L117.7,7.1l-2.5-1.5c-1.2-.7-5.8-3-15.1-2.5-11.7.7-25.8,5.6-41.9,14.6C24.3,36.8,18.7,57.6,18.4,58.5l-1,3.8Z"/><path class="cls-13" d="M24.5,59.7l95.9,68.3-8.7-117.2s-13.9-8.4-50.6,12.1C29.2,40.8,24.5,59.7,24.5,59.7Z"/><path class="cls-10" d="M121.8,130.3L23.2,60.2l.2-.7c.2-.8,5.2-19.6,37.2-37.6C97.4,1.2,111.7,9.4,112.3,9.7l.5.3,8.9,120.3ZM25.8,59.2l93.2,66.4-8.5-114.1c-2.7-1.1-17.1-5.5-48.9,12.4-27.7,15.5-34.6,31.9-35.9,35.4Z"/><ellipse class="cls-9" cx="67.4" cy="72.4" rx="12.2" ry="11.5" transform="translate(-26.3 40.6) rotate(-28.3)"/><ellipse class="cls-14" cx="71.6" cy="68.5" rx="3.5" ry="3.3" transform="translate(-23.9 42.2) rotate(-28.3)"/><ellipse class="cls-11" cx="61.1" cy="73.9" rx="3" ry="2.8" transform="translate(-27.7 37.8) rotate(-28.3)"/><ellipse class="cls-11" cx="68.5" cy="79.3" rx="1.4" ry="1.3" transform="translate(-29.4 42) rotate(-28.3)"/><ellipse class="cls-9" cx="98.9" cy="52.5" rx="12.2" ry="11.5" transform="translate(-13 53.2) rotate(-28.3)"/><ellipse class="cls-14" cx="103.1" cy="48.6" rx="3.5" ry="3.3" transform="translate(-10.7 54.7) rotate(-28.3)"/><ellipse class="cls-11" cx="92.6" cy="53.9" rx="3" ry="2.8" transform="translate(-14.5 50.4) rotate(-28.3)"/><ellipse class="cls-11" cx="100.1" cy="59.3" rx="1.4" ry="1.3" transform="translate(-16.2 54.6) rotate(-28.3)"/><g id="Shimp"><g class="cls-1"><path class="cls-16" d="M101.4,72.7s3.7-6.8,8-.8,1.5,2.7,2,4.5c2.2,8-.2,20.7-22.6,17.9-12.8-4.7-11.7-7-11.7-7l1-2,11.7,5.3s16-2.3,13-8.5c-.7-1.6-1.2-2.9-1.5-4.1-.8-3.5,0-5.3,0-5.3Z"/><path class="cls-8" d="M106.1,93c-4.1,2.3-10,3-17.5,2.1h-.2c-7.1-2.7-11.3-5-12.1-6.9-.2-.6-.1-.9,0-1.1l1.4-2.7,12.2,5.5c3-.5,10.5-2.1,12.2-5,.4-.7.4-1.5,0-2.3-.7-1.5-1.2-2.9-1.5-4.2-.9-3.7.1-5.7.2-5.8h0c0-.2,1.9-3.4,4.7-3.7,1.7-.2,3.2.8,4.6,2.7.9,1.2,1.6,2.9,2.1,4.7,1.5,5.4.5,10.7-2.7,14.2-.9,1-2.1,1.9-3.3,2.6ZM89,93.6c9.2,1.1,15.7-.3,19.3-4.2,4.2-4.5,2.8-10.9,2.3-12.8-.5-1.7-1.1-3.2-1.9-4.3-1.1-1.5-2.2-2.2-3.3-2.1-1.8.2-3.2,2.6-3.4,2.8,0,.2-.7,1.8,0,4.8.3,1.2.8,2.6,1.4,3.9.6,1.3.6,2.5-.1,3.7-2.5,4.2-13.1,5.8-13.6,5.8h-.2s-11.2-5-11.2-5l-.6,1.1c.1.4,1.3,2.4,11.2,6.1Z"/><path class="cls-8" d="M110.5,73.3s-6.5,5.1-8.8,4.3c0,0,3,2,6.9-.5,3.9-2.5,2-3.8,2-3.8Z"/><path class="cls-8" d="M112.4,83.1s-9.2.2-10.6-1.9c0,0,1.1,3.4,6.2,3.8,5,.4,4.4-1.9,4.4-1.9Z"/><path class="cls-8" d="M107.5,90.1s-6.1-2.2-6.5-3.8c0,0,0,2.4,3.2,3.9s3.4,0,3.4,0Z"/><path class="cls-8" d="M98.7,95.1s-2.4-5.9-1.5-7.4c0,0-1.8,1.7-.8,5s2.2,2.3,2.2,2.3Z"/><path class="cls-8" d="M93.8,95.9s-2.4-5.9-1.5-7.4c0,0-1.8,1.7-.8,5s2.2,2.3,2.2,2.3Z"/><polygon class="cls-8" points="90.1 90.1 88.3 94.2 74.9 90.7 76.4 84.1 90.1 90.1"/></g></g><path class="cls-7" d="M108.9,23.6s-7.9,14.4-18.3,11.7c-10.4-2.7-7.7-2.2-7.7-2.2,0,0,2.7-15,26-9.5Z"/><path class="cls-7" d="M40.1,64.8s16.4.8,19.5-9.5,2.1-7.7,2.1-7.7c0,0-14.3-5.5-21.6,17.3Z"/><path class="cls-13" d="M28.5,156.2c-2.7-5.5-5.5-12.2-8.3-20.6-1.7-5.2-3.1-10.3-4.1-15.3-1,.2-2.1.5-3.2.8-.3-1.4-.6-2.4-.8-3.1-.5-1.6-1.2-3.1-2.2-4.6,3.6-1.2,7-2.1,10.1-2.8,6.2-1.4,11.5-1.9,15.8-1.5,4.3.4,7.6,1.5,9.9,3.3,2.3,1.8,3.7,4,4.2,6.7.6,3.5-.2,7.7-2.3,12.2-2.1,4.5-5.5,9.2-10,14,1.1,3.6,2.3,6.7,3.4,9.4-2.2.1-4.3.3-6.2.5-1.9.2-4,.5-6.2,1ZM33.4,130.9c2.4-3.4,3.5-6.2,2.9-8.4-.5-2-2.3-3.3-5.5-3.8.6,4,1.5,8.1,2.5,12.3Z"/><path class="cls-13" d="M61.9,118.2c-2.4.2-4.6-.3-6.5-1.5-1.9-1.2-3-2.7-3.4-4.6-.3-1.9.3-3.7,1.8-5.3,1.5-1.6,3.6-2.6,6.1-2.9,2.5-.3,4.7.2,6.7,1.5,1.9,1.3,3,3,3.2,5,.2,2-.5,3.8-2,5.3-1.6,1.5-3.5,2.3-5.9,2.5ZM61.6,155c-.3-1.8-.9-4.8-1.7-9.2-.8-4.4-1.7-8.9-2.7-13.7-.9-4.8-1.6-8.4-2.1-10.8,2.2,0,4.4,0,6.5-.1,2.5-.2,5.1-.5,7.7-.9.5,4.2,1.3,9.8,2.2,16.3.9,6.5,1.7,12.2,2.4,17.2-5,.6-7.5.8-12.4,1.4Z"/><path class="cls-13" d="M93.6,154c-5.7,0-10.8,0-15.3-.4,0-.2,0-.2,0-.4,0-.6-.1-1.5-.3-2.9-.1-1.3-.3-2.6-.5-3.9-.2-1.3-.3-2.1-.5-2.5,2.7-4.2,5.4-8.5,8-12.9,2.6-4.4,5.4-9.5,8.5-15.3-6.3.2-11.9.7-16.7,1.4,0-1.3,0-2.7-.1-4.1-.3-3.4-1.1-6.4-2.4-9.2,6.5-1.1,13.5-1.8,21.1-1.9,5.7,0,10.8.2,15.4.7.6,1.3,1.1,2.7,1.7,4.1.7,1.8,1.2,3.1,1.6,3.9-4.4,6.7-9,13.1-13.6,19.3-2.8,3.7-5.3,7.4-7.7,11,.4,0,.7,0,1.1,0,6.2,0,12.1-.3,17.6-.7,0,.6-.1.8-.2,1.4-.4,2.6-.6,4.6-.7,6.2,0,2.2.1,4,.6,5.4-5.3.4-11.2.6-17.7.7Z"/><path class="cls-13" d="M130.6,154.3c-5.8,0-10.8-.4-15.2-.9,0-.2,0-.2,0-.4,0-.6,0-1.5.1-2.9,0-1.3,0-2.7,0-3.9,0-1.3,0-2.1-.2-2.5,3.3-4.1,6.6-8.3,9.9-12.5,3.3-4.2,6.8-8.9,10.8-14.3-6.4-.4-12-.4-16.8-.1.2-1.3.4-2.7.5-4.1.2-3.4-.1-6.5-1-9.4,6.6-.3,13.6-.1,21.2.6,5.6.6,10.8,1.4,15.3,2.5.4,1.2.8,2.6,1.2,4,.4,1.7.8,3,1.1,3.8-5.3,5.7-10.9,11.5-16.5,17.1-3.3,3.4-6.5,6.9-9.4,10.3.4,0,.7,0,1.1,0,6.3.2,12.2.2,17.9,0-.2.5-.2.8-.4,1.3-.8,2.5-1.3,4.4-1.5,5.9-.4,2.1-.4,3.8,0,5.2-5.4.3-11.4.4-18,.3Z"/><path class="cls-13" d="M181.2,156.5c-3.2-1.6-6.2-2.8-8.9-3.6-.7-.2-1-.3-1.7-.6.5-.6,1-1.3,1.6-2.2-3.3.9-6.1,1.3-8.5,1.1-2.6-.1-4.7-.7-6.4-1.8-1.7-1.1-2.9-2.5-3.6-4.2-.7-1.7-.9-3.5-.5-5.4.3-1.6,1.1-3.3,2.4-5,1.2-1.6,3-3.1,5.2-4.3,2.2-1.2,5-2.1,8.3-2.6,3.3-.5,7.1-.4,11.4.2.6,0,.9.1,1.5.2,0-.5.1-.7.2-1.2.6-3.7,0-5.8-2-6.1-.8-.1-1.8,0-2.9.4-1.1.4-2.3,1-3.6,1.8-1.3.8-2.6,1.6-4,2.5-.8.5-1.2.8-2,1.3-.9-1.7-2-3.3-3.2-4.7-1.3-1.4-2.6-2.8-4.1-4.2,9.9-6.8,18.3-9.1,24.6-7.7,2.8.6,5.1,1.9,6.8,3.7,1.7,1.8,2.9,3.9,3.6,6.4.7,2.4.9,5,.6,7.8-.3,2.8-1,5.6-2.1,8.5-1.3,3.5-3.2,6.9-5.3,10.3-2.2,3.4-4.6,6.5-7.3,9.2ZM166.6,141c2.9.2,6.7-.2,11.5-1.3.4-.8.8-1.7,1.1-2.6-.9-.1-1.4-.2-2.3-.3-3.1-.3-5.6-.4-7.6-.2-2,.2-3.6.5-4.6,1-1.1.5-1.6.9-1.8,1.4-.1.4.2.8.8,1.2.6.4,1.6.6,3,.7Z"/><path class="cls-12" d="M28.5,156.2c-2.7-5.5-5.5-12.2-8.3-20.6-1.7-5.2-3.1-10.3-4.1-15.3-1,.2-2.1.5-3.2.8-.3-1.4-.6-2.4-.8-3.1-.5-1.6-1.2-3.1-2.2-4.6,3.6-1.2,7-2.1,10.1-2.8,6.2-1.4,11.5-1.9,15.8-1.5,4.3.4,7.6,1.5,9.9,3.3,2.3,1.8,3.7,4,4.2,6.7.6,3.5-.2,7.7-2.3,12.2-2.1,4.5-5.5,9.2-10,14,1.1,3.6,2.3,6.7,3.4,9.4-2.2.1-4.3.3-6.2.5-1.9.2-4,.5-6.2,1ZM33.4,130.9c2.4-3.4,3.5-6.2,2.9-8.4-.5-2-2.3-3.3-5.5-3.8.6,4,1.5,8.1,2.5,12.3Z"/><path class="cls-12" d="M61.9,118.2c-2.4.2-4.6-.3-6.5-1.5-1.9-1.2-3-2.7-3.4-4.6-.3-1.9.3-3.7,1.8-5.3,1.5-1.6,3.6-2.6,6.1-2.9,2.5-.3,4.7.2,6.7,1.5,1.9,1.3,3,3,3.2,5,.2,2-.5,3.8-2,5.3-1.6,1.5-3.5,2.3-5.9,2.5ZM61.6,155c-.3-1.8-.9-4.8-1.7-9.2-.8-4.4-1.7-8.9-2.7-13.7-.9-4.8-1.6-8.4-2.1-10.8,2.2,0,4.4,0,6.5-.1,2.5-.2,5.1-.5,7.7-.9.5,4.2,1.3,9.8,2.2,16.3.9,6.5,1.7,12.2,2.4,17.2-5,.6-7.5.8-12.4,1.4Z"/><path class="cls-12" d="M93.6,154c-5.7,0-10.8,0-15.3-.4,0-.2,0-.2,0-.4,0-.6-.1-1.5-.3-2.9-.1-1.3-.3-2.6-.5-3.9-.2-1.3-.3-2.1-.5-2.5,2.7-4.2,5.4-8.5,8-12.9,2.6-4.4,5.4-9.5,8.5-15.3-6.3.2-11.9.7-16.7,1.4,0-1.3,0-2.7-.1-4.1-.3-3.4-1.1-6.4-2.4-9.2,6.5-1.1,13.5-1.8,21.1-1.9,5.7,0,10.8.2,15.4.7.6,1.3,1.1,2.7,1.7,4.1.7,1.8,1.2,3.1,1.6,3.9-4.4,6.7-9,13.1-13.6,19.3-2.8,3.7-5.3,7.4-7.7,11,.4,0,.7,0,1.1,0,6.2,0,12.1-.3,17.6-.7,0,.6-.1.8-.2,1.4-.4,2.6-.6,4.6-.7,6.2,0,2.2.1,4,.6,5.4-5.3.4-11.2.6-17.7.7Z"/><path class="cls-12" d="M130.6,154.3c-5.8,0-10.8-.4-15.2-.9,0-.2,0-.2,0-.4,0-.6,0-1.5.1-2.9,0-1.3,0-2.7,0-3.9,0-1.3,0-2.1-.2-2.5,3.3-4.1,6.6-8.3,9.9-12.5,3.3-4.2,6.8-8.9,10.8-14.3-6.4-.4-12-.4-16.8-.1.2-1.3.4-2.7.5-4.1.2-3.4-.1-6.5-1-9.4,6.6-.3,13.6-.1,21.2.6,5.6.6,10.8,1.4,15.3,2.5.4,1.2.8,2.6,1.2,4,.4,1.7.8,3,1.1,3.8-5.3,5.7-10.9,11.5-16.5,17.1-3.3,3.4-6.5,6.9-9.4,10.3.4,0,.7,0,1.1,0,6.3.2,12.2.2,17.9,0-.2.5-.2.8-.4,1.3-.8,2.5-1.3,4.4-1.5,5.9-.4,2.1-.4,3.8,0,5.2-5.4.3-11.4.4-18,.3Z"/><path class="cls-12" d="M181.2,156.5c-3.2-1.6-6.2-2.8-8.9-3.6-.7-.2-1-.3-1.7-.6.5-.6,1-1.3,1.6-2.2-3.3.9-6.1,1.3-8.5,1.1-2.6-.1-4.7-.7-6.4-1.8-1.7-1.1-2.9-2.5-3.6-4.2-.7-1.7-.9-3.5-.5-5.4.3-1.6,1.1-3.3,2.4-5,1.2-1.6,3-3.1,5.2-4.3,2.2-1.2,5-2.1,8.3-2.6,3.3-.5,7.1-.4,11.4.2.6,0,.9.1,1.5.2,0-.5.1-.7.2-1.2.6-3.7,0-5.8-2-6.1-.8-.1-1.8,0-2.9.4-1.1.4-2.3,1-3.6,1.8-1.3.8-2.6,1.6-4,2.5-.8.5-1.2.8-2,1.3-.9-1.7-2-3.3-3.2-4.7-1.3-1.4-2.6-2.8-4.1-4.2,9.9-6.8,18.3-9.1,24.6-7.7,2.8.6,5.1,1.9,6.8,3.7,1.7,1.8,2.9,3.9,3.6,6.4.7,2.4.9,5,.6,7.8-.3,2.8-1,5.6-2.1,8.5-1.3,3.5-3.2,6.9-5.3,10.3-2.2,3.4-4.6,6.5-7.3,9.2ZM166.6,141c2.9.2,6.7-.2,11.5-1.3.4-.8.8-1.7,1.1-2.6-.9-.1-1.4-.2-2.3-.3-3.1-.3-5.6-.4-7.6-.2-2,.2-3.6.5-4.6,1-1.1.5-1.6.9-1.8,1.4-.1.4.2.8.8,1.2.6.4,1.6.6,3,.7Z"/><path class="cls-5" d="M28.5,156.2c-2.7-5.5-5.5-12.2-8.3-20.6-1.7-5.2-3.1-10.3-4.1-15.3-1,.2-2.1.5-3.2.8-.3-1.4-.6-2.4-.8-3.1-.5-1.6-1.2-3.1-2.2-4.6,3.6-1.2,7-2.1,10.1-2.8,6.2-1.4,11.5-1.9,15.8-1.5,4.3.4,7.6,1.5,9.9,3.3,2.3,1.8,3.7,4,4.2,6.7.6,3.5-.2,7.7-2.3,12.2-2.1,4.5-5.5,9.2-10,14,1.1,3.6,2.3,6.7,3.4,9.4-2.2.1-4.3.3-6.2.5-1.9.2-4,.5-6.2,1ZM33.4,130.9c2.4-3.4,3.5-6.2,2.9-8.4-.5-2-2.3-3.3-5.5-3.8.6,4,1.5,8.1,2.5,12.3Z"/><path class="cls-5" d="M61.9,118.2c-2.4.2-4.6-.3-6.5-1.5-1.9-1.2-3-2.7-3.4-4.6-.3-1.9.3-3.7,1.8-5.3,1.5-1.6,3.6-2.6,6.1-2.9,2.5-.3,4.7.2,6.7,1.5,1.9,1.3,3,3,3.2,5,.2,2-.5,3.8-2,5.3-1.6,1.5-3.5,2.3-5.9,2.5ZM61.6,155c-.3-1.8-.9-4.8-1.7-9.2-.8-4.4-1.7-8.9-2.7-13.7-.9-4.8-1.6-8.4-2.1-10.8,2.2,0,4.4,0,6.5-.1,2.5-.2,5.1-.5,7.7-.9.5,4.2,1.3,9.8,2.2,16.3.9,6.5,1.7,12.2,2.4,17.2-5,.6-7.5.8-12.4,1.4Z"/><path class="cls-5" d="M93.6,154c-5.7,0-10.8,0-15.3-.4,0-.2,0-.2,0-.4,0-.6-.1-1.5-.3-2.9-.1-1.3-.3-2.6-.5-3.9-.2-1.3-.3-2.1-.5-2.5,2.7-4.2,5.4-8.5,8-12.9,2.6-4.4,5.4-9.5,8.5-15.3-6.3.2-11.9.7-16.7,1.4,0-1.3,0-2.7-.1-4.1-.3-3.4-1.1-6.4-2.4-9.2,6.5-1.1,13.5-1.8,21.1-1.9,5.7,0,10.8.2,15.4.7.6,1.3,1.1,2.7,1.7,4.1.7,1.8,1.2,3.1,1.6,3.9-4.4,6.7-9,13.1-13.6,19.3-2.8,3.7-5.3,7.4-7.7,11,.4,0,.7,0,1.1,0,6.2,0,12.1-.3,17.6-.7,0,.6-.1.8-.2,1.4-.4,2.6-.6,4.6-.7,6.2,0,2.2.1,4,.6,5.4-5.3.4-11.2.6-17.7.7Z"/><path class="cls-5" d="M130.6,154.3c-5.8,0-10.8-.4-15.2-.9,0-.2,0-.2,0-.4,0-.6,0-1.5.1-2.9,0-1.3,0-2.7,0-3.9,0-1.3,0-2.1-.2-2.5,3.3-4.1,6.6-8.3,9.9-12.5,3.3-4.2,6.8-8.9,10.8-14.3-6.4-.4-12-.4-16.8-.1.2-1.3.4-2.7.5-4.1.2-3.4-.1-6.5-1-9.4,6.6-.3,13.6-.1,21.2.6,5.6.6,10.8,1.4,15.3,2.5.4,1.2.8,2.6,1.2,4,.4,1.7.8,3,1.1,3.8-5.3,5.7-10.9,11.5-16.5,17.1-3.3,3.4-6.5,6.9-9.4,10.3.4,0,.7,0,1.1,0,6.3.2,12.2.2,17.9,0-.2.5-.2.8-.4,1.3-.8,2.5-1.3,4.4-1.5,5.9-.4,2.1-.4,3.8,0,5.2-5.4.3-11.4.4-18,.3Z"/><path class="cls-5" d="M181.2,156.5c-3.2-1.6-6.2-2.8-8.9-3.6-.7-.2-1-.3-1.7-.6.5-.6,1-1.3,1.6-2.2-3.3.9-6.1,1.3-8.5,1.1-2.6-.1-4.7-.7-6.4-1.8-1.7-1.1-2.9-2.5-3.6-4.2-.7-1.7-.9-3.5-.5-5.4.3-1.6,1.1-3.3,2.4-5,1.2-1.6,3-3.1,5.2-4.3,2.2-1.2,5-2.1,8.3-2.6,3.3-.5,7.1-.4,11.4.2.6,0,.9.1,1.5.2,0-.5.1-.7.2-1.2.6-3.7,0-5.8-2-6.1-.8-.1-1.8,0-2.9.4-1.1.4-2.3,1-3.6,1.8-1.3.8-2.6,1.6-4,2.5-.8.5-1.2.8-2,1.3-.9-1.7-2-3.3-3.2-4.7-1.3-1.4-2.6-2.8-4.1-4.2,9.9-6.8,18.3-9.1,24.6-7.7,2.8.6,5.1,1.9,6.8,3.7,1.7,1.8,2.9,3.9,3.6,6.4.7,2.4.9,5,.6,7.8-.3,2.8-1,5.6-2.1,8.5-1.3,3.5-3.2,6.9-5.3,10.3-2.2,3.4-4.6,6.5-7.3,9.2ZM166.6,141c2.9.2,6.7-.2,11.5-1.3.4-.8.8-1.7,1.1-2.6-.9-.1-1.4-.2-2.3-.3-3.1-.3-5.6-.4-7.6-.2-2,.2-3.6.5-4.6,1-1.1.5-1.6.9-1.8,1.4-.1.4.2.8.8,1.2.6.4,1.6.6,3,.7Z"/><path class="cls-13" d="M22.1,156.6c-2.8-5.4-5.9-12-8.8-20.1-1.8-5-3.3-9.9-4.4-14.7-1,.2-2.1.5-3.2.9-.3-1.3-.6-2.3-.8-2.9-.5-1.5-1.2-2.9-2.3-4.4,3.6-1.2,6.9-2.2,10-3,6.2-1.5,11.5-2.1,15.8-1.8,4.3.3,7.6,1.3,9.9,3,2.4,1.7,3.8,3.9,4.3,6.5.7,3.5,0,7.5-2.1,12-2,4.5-5.3,9.1-9.7,13.8,1.2,3.5,2.5,6.6,3.7,9.3-2.2.1-4.3.3-6.2.5-1.9.2-4,.6-6.2,1ZM26.4,131.7c2.4-3.3,3.4-6.1,2.8-8.3-.5-2-2.4-3.2-5.6-3.6.7,3.8,1.6,7.8,2.8,11.9Z"/><path class="cls-13" d="M54.7,118.8c-2.4.2-4.6-.2-6.5-1.3-1.9-1.1-3.1-2.6-3.5-4.5-.3-1.9.2-3.6,1.7-5.2,1.5-1.6,3.5-2.6,6.1-2.9,2.5-.3,4.7.1,6.7,1.3,2,1.2,3,2.9,3.3,4.8.3,2-.4,3.7-1.9,5.2-1.5,1.5-3.5,2.3-5.9,2.5ZM55.3,155.2c-.4-1.8-1-4.8-1.9-9.1-.9-4.3-1.9-8.8-3-13.5-1.1-4.7-1.9-8.3-2.3-10.6,2.3,0,4.4,0,6.5-.2,2.5-.2,5.1-.6,7.7-1.1.6,4.2,1.5,9.6,2.6,16.1,1.1,6.5,2,12.1,2.8,17-5,.5-7.5.8-12.4,1.4Z"/><path class="cls-13" d="M87.4,154c-5.7,0-10.8,0-15.3-.3,0-.2,0-.2,0-.4,0-.6-.2-1.5-.3-2.8-.2-1.3-.4-2.6-.6-3.9-.2-1.2-.4-2.1-.6-2.4,2.6-4.2,5.2-8.5,7.7-12.9,2.5-4.4,5.2-9.5,8.2-15.3-6.3.3-11.9.9-16.7,1.7,0-1.3,0-2.7-.2-4.1-.4-3.3-1.2-6.4-2.6-9.1,6.5-1.2,13.5-2,21-2.3,5.6-.2,10.8,0,15.5.4.6,1.3,1.2,2.6,1.8,4.1.7,1.8,1.3,3.1,1.7,3.9-4.3,6.8-8.6,13.3-13.1,19.5-2.7,3.8-5.1,7.5-7.5,11.1.4,0,.7,0,1.1,0,6.2-.1,12.1-.4,17.6-.9,0,.6,0,.8-.2,1.4-.3,2.6-.5,4.7-.5,6.2,0,2.2.2,4,.8,5.4-5.3.4-11.1.7-17.7.8Z"/><path class="cls-13" d="M124.3,154.2c-5.7-.1-10.8-.4-15.2-.8,0-.2,0-.2,0-.4,0-.6,0-1.5,0-2.9,0-1.4,0-2.7,0-3.9,0-1.3-.1-2.1-.2-2.5,3.2-4.2,6.4-8.4,9.5-12.6,3.2-4.2,6.6-9.1,10.4-14.5-6.3-.3-11.9-.3-16.8.1.2-1.3.3-2.7.4-4.2.1-3.4-.3-6.6-1.3-9.5,6.6-.5,13.6-.4,21.2.2,5.6.5,10.8,1.2,15.3,2.2.4,1.3.9,2.6,1.2,4,.5,1.7.9,3,1.2,3.8-5.2,6-10.6,11.9-16,17.6-3.2,3.5-6.3,7-9.1,10.5.4,0,.7,0,1.1,0,6.3.2,12.2.1,17.8-.1-.1.5-.2.8-.4,1.3-.7,2.5-1.2,4.5-1.4,6-.3,2.1-.3,3.9,0,5.3-5.4.3-11.4.4-17.9.3Z"/><path class="cls-13" d="M174.8,156.2c-3.2-1.6-6.2-2.8-9-3.6-.7-.2-1-.3-1.7-.6.5-.6,1-1.3,1.5-2.2-3.2.9-6,1.3-8.5,1.2-2.6-.1-4.7-.7-6.4-1.8-1.7-1.1-2.9-2.5-3.7-4.2-.7-1.7-1-3.6-.6-5.5.3-1.7,1-3.4,2.2-5,1.2-1.7,2.9-3.2,5.1-4.4,2.2-1.3,4.9-2.2,8.2-2.7,3.2-.5,7-.5,11.4,0,.6,0,.9.1,1.5.2,0-.5.1-.8.2-1.3.5-3.8-.2-6-2.1-6.2-.8-.1-1.8,0-2.9.5s-2.3,1.1-3.6,1.9c-1.3.8-2.6,1.7-3.9,2.6-.8.5-1.2.8-2,1.4-.9-1.7-2-3.3-3.3-4.8-1.3-1.4-2.7-2.8-4.2-4.2,9.8-7.2,18.1-9.8,24.4-8.5,2.8.6,5.1,1.8,6.9,3.7,1.7,1.8,3,4,3.7,6.5.7,2.5.9,5.2.7,8.1-.3,2.9-.9,5.8-2,8.8-1.3,3.6-3,7.2-5.1,10.6-2.1,3.5-4.4,6.6-6.9,9.4ZM159.8,140.5c2.9.2,6.6-.3,11.4-1.4.4-.9.7-1.7,1.1-2.6-.9-.1-1.4-.2-2.3-.3-3-.3-5.6-.3-7.6,0-2,.2-3.5.6-4.6,1.1-1,.5-1.6,1-1.7,1.5,0,.4.2.8.8,1.2.6.4,1.6.6,3,.7Z"/><path class="cls-12" d="M22.1,156.6c-2.8-5.4-5.9-12-8.8-20.1-1.8-5-3.3-9.9-4.4-14.7-1,.2-2.1.5-3.2.9-.3-1.3-.6-2.3-.8-2.9-.5-1.5-1.2-2.9-2.3-4.4,3.6-1.2,6.9-2.2,10-3,6.2-1.5,11.5-2.1,15.8-1.8,4.3.3,7.6,1.3,9.9,3,2.4,1.7,3.8,3.9,4.3,6.5.7,3.5,0,7.5-2.1,12-2,4.5-5.3,9.1-9.7,13.8,1.2,3.5,2.5,6.6,3.7,9.3-2.2.1-4.3.3-6.2.5-1.9.2-4,.6-6.2,1ZM26.4,131.7c2.4-3.3,3.4-6.1,2.8-8.3-.5-2-2.4-3.2-5.6-3.6.7,3.8,1.6,7.8,2.8,11.9Z"/><path class="cls-12" d="M54.7,118.8c-2.4.2-4.6-.2-6.5-1.3-1.9-1.1-3.1-2.6-3.5-4.5-.3-1.9.2-3.6,1.7-5.2,1.5-1.6,3.5-2.6,6.1-2.9,2.5-.3,4.7.1,6.7,1.3,2,1.2,3,2.9,3.3,4.8.3,2-.4,3.7-1.9,5.2-1.5,1.5-3.5,2.3-5.9,2.5ZM55.3,155.2c-.4-1.8-1-4.8-1.9-9.1-.9-4.3-1.9-8.8-3-13.5-1.1-4.7-1.9-8.3-2.3-10.6,2.3,0,4.4,0,6.5-.2,2.5-.2,5.1-.6,7.7-1.1.6,4.2,1.5,9.6,2.6,16.1,1.1,6.5,2,12.1,2.8,17-5,.5-7.5.8-12.4,1.4Z"/><path class="cls-12" d="M87.4,154c-5.7,0-10.8,0-15.3-.3,0-.2,0-.2,0-.4,0-.6-.2-1.5-.3-2.8-.2-1.3-.4-2.6-.6-3.9-.2-1.2-.4-2.1-.6-2.4,2.6-4.2,5.2-8.5,7.7-12.9,2.5-4.4,5.2-9.5,8.2-15.3-6.3.3-11.9.9-16.7,1.7,0-1.3,0-2.7-.2-4.1-.4-3.3-1.2-6.4-2.6-9.1,6.5-1.2,13.5-2,21-2.3,5.6-.2,10.8,0,15.5.4.6,1.3,1.2,2.6,1.8,4.1.7,1.8,1.3,3.1,1.7,3.9-4.3,6.8-8.6,13.3-13.1,19.5-2.7,3.8-5.1,7.5-7.5,11.1.4,0,.7,0,1.1,0,6.2-.1,12.1-.4,17.6-.9,0,.6,0,.8-.2,1.4-.3,2.6-.5,4.7-.5,6.2,0,2.2.2,4,.8,5.4-5.3.4-11.1.7-17.7.8Z"/><path class="cls-12" d="M124.3,154.2c-5.7-.1-10.8-.4-15.2-.8,0-.2,0-.2,0-.4,0-.6,0-1.5,0-2.9,0-1.4,0-2.7,0-3.9,0-1.3-.1-2.1-.2-2.5,3.2-4.2,6.4-8.4,9.5-12.6,3.2-4.2,6.6-9.1,10.4-14.5-6.3-.3-11.9-.3-16.8.1.2-1.3.3-2.7.4-4.2.1-3.4-.3-6.6-1.3-9.5,6.6-.5,13.6-.4,21.2.2,5.6.5,10.8,1.2,15.3,2.2.4,1.3.9,2.6,1.2,4,.5,1.7.9,3,1.2,3.8-5.2,6-10.6,11.9-16,17.6-3.2,3.5-6.3,7-9.1,10.5.4,0,.7,0,1.1,0,6.3.2,12.2.1,17.8-.1-.1.5-.2.8-.4,1.3-.7,2.5-1.2,4.5-1.4,6-.3,2.1-.3,3.9,0,5.3-5.4.3-11.4.4-17.9.3Z"/><path class="cls-12" d="M174.8,156.2c-3.2-1.6-6.2-2.8-9-3.6-.7-.2-1-.3-1.7-.6.5-.6,1-1.3,1.5-2.2-3.2.9-6,1.3-8.5,1.2-2.6-.1-4.7-.7-6.4-1.8-1.7-1.1-2.9-2.5-3.7-4.2-.7-1.7-1-3.6-.6-5.5.3-1.7,1-3.4,2.2-5,1.2-1.7,2.9-3.2,5.1-4.4,2.2-1.3,4.9-2.2,8.2-2.7,3.2-.5,7-.5,11.4,0,.6,0,.9.1,1.5.2,0-.5.1-.8.2-1.3.5-3.8-.2-6-2.1-6.2-.8-.1-1.8,0-2.9.5s-2.3,1.1-3.6,1.9c-1.3.8-2.6,1.7-3.9,2.6-.8.5-1.2.8-2,1.4-.9-1.7-2-3.3-3.3-4.8-1.3-1.4-2.7-2.8-4.2-4.2,9.8-7.2,18.1-9.8,24.4-8.5,2.8.6,5.1,1.8,6.9,3.7,1.7,1.8,3,4,3.7,6.5.7,2.5.9,5.2.7,8.1-.3,2.9-.9,5.8-2,8.8-1.3,3.6-3,7.2-5.1,10.6-2.1,3.5-4.4,6.6-6.9,9.4ZM159.8,140.5c2.9.2,6.6-.3,11.4-1.4.4-.9.7-1.7,1.1-2.6-.9-.1-1.4-.2-2.3-.3-3-.3-5.6-.3-7.6,0-2,.2-3.5.6-4.6,1.1-1,.5-1.6,1-1.7,1.5,0,.4.2.8.8,1.2.6.4,1.6.6,3,.7Z"/><path class="cls-6" d="M22.1,156.6c-2.8-5.4-5.9-12-8.8-20.1-1.8-5-3.3-9.9-4.4-14.7-1,.2-2.1.5-3.2.9-.3-1.3-.6-2.3-.8-2.9-.5-1.5-1.2-2.9-2.3-4.4,3.6-1.2,6.9-2.2,10-3,6.2-1.5,11.5-2.1,15.8-1.8,4.3.3,7.6,1.3,9.9,3,2.4,1.7,3.8,3.9,4.3,6.5.7,3.5,0,7.5-2.1,12-2,4.5-5.3,9.1-9.7,13.8,1.2,3.5,2.5,6.6,3.7,9.3-2.2.1-4.3.3-6.2.5-1.9.2-4,.6-6.2,1ZM26.4,131.7c2.4-3.3,3.4-6.1,2.8-8.3-.5-2-2.4-3.2-5.6-3.6.7,3.8,1.6,7.8,2.8,11.9Z"/><path class="cls-6" d="M54.7,118.8c-2.4.2-4.6-.2-6.5-1.3-1.9-1.1-3.1-2.6-3.5-4.5-.3-1.9.2-3.6,1.7-5.2,1.5-1.6,3.5-2.6,6.1-2.9,2.5-.3,4.7.1,6.7,1.3,2,1.2,3,2.9,3.3,4.8.3,2-.4,3.7-1.9,5.2-1.5,1.5-3.5,2.3-5.9,2.5ZM55.3,155.2c-.4-1.8-1-4.8-1.9-9.1-.9-4.3-1.9-8.8-3-13.5-1.1-4.7-1.9-8.3-2.3-10.6,2.3,0,4.4,0,6.5-.2,2.5-.2,5.1-.6,7.7-1.1.6,4.2,1.5,9.6,2.6,16.1,1.1,6.5,2,12.1,2.8,17-5,.5-7.5.8-12.4,1.4Z"/><path class="cls-6" d="M87.4,154c-5.7,0-10.8,0-15.3-.3,0-.2,0-.2,0-.4,0-.6-.2-1.5-.3-2.8-.2-1.3-.4-2.6-.6-3.9-.2-1.2-.4-2.1-.6-2.4,2.6-4.2,5.2-8.5,7.7-12.9,2.5-4.4,5.2-9.5,8.2-15.3-6.3.3-11.9.9-16.7,1.7,0-1.3,0-2.7-.2-4.1-.4-3.3-1.2-6.4-2.6-9.1,6.5-1.2,13.5-2,21-2.3,5.6-.2,10.8,0,15.5.4.6,1.3,1.2,2.6,1.8,4.1.7,1.8,1.3,3.1,1.7,3.9-4.3,6.8-8.6,13.3-13.1,19.5-2.7,3.8-5.1,7.5-7.5,11.1.4,0,.7,0,1.1,0,6.2-.1,12.1-.4,17.6-.9,0,.6,0,.8-.2,1.4-.3,2.6-.5,4.7-.5,6.2,0,2.2.2,4,.8,5.4-5.3.4-11.1.7-17.7.8Z"/><path class="cls-6" d="M124.3,154.2c-5.7-.1-10.8-.4-15.2-.8,0-.2,0-.2,0-.4,0-.6,0-1.5,0-2.9,0-1.4,0-2.7,0-3.9,0-1.3-.1-2.1-.2-2.5,3.2-4.2,6.4-8.4,9.5-12.6,3.2-4.2,6.6-9.1,10.4-14.5-6.3-.3-11.9-.3-16.8.1.2-1.3.3-2.7.4-4.2.1-3.4-.3-6.6-1.3-9.5,6.6-.5,13.6-.4,21.2.2,5.6.5,10.8,1.2,15.3,2.2.4,1.3.9,2.6,1.2,4,.5,1.7.9,3,1.2,3.8-5.2,6-10.6,11.9-16,17.6-3.2,3.5-6.3,7-9.1,10.5.4,0,.7,0,1.1,0,6.3.2,12.2.1,17.8-.1-.1.5-.2.8-.4,1.3-.7,2.5-1.2,4.5-1.4,6-.3,2.1-.3,3.9,0,5.3-5.4.3-11.4.4-17.9.3Z"/><path class="cls-6" d="M174.8,156.2c-3.2-1.6-6.2-2.8-9-3.6-.7-.2-1-.3-1.7-.6.5-.6,1-1.3,1.5-2.2-3.2.9-6,1.3-8.5,1.2-2.6-.1-4.7-.7-6.4-1.8-1.7-1.1-2.9-2.5-3.7-4.2-.7-1.7-1-3.6-.6-5.5.3-1.7,1-3.4,2.2-5,1.2-1.7,2.9-3.2,5.1-4.4,2.2-1.3,4.9-2.2,8.2-2.7,3.2-.5,7-.5,11.4,0,.6,0,.9.1,1.5.2,0-.5.1-.8.2-1.3.5-3.8-.2-6-2.1-6.2-.8-.1-1.8,0-2.9.5s-2.3,1.1-3.6,1.9c-1.3.8-2.6,1.7-3.9,2.6-.8.5-1.2.8-2,1.4-.9-1.7-2-3.3-3.3-4.8-1.3-1.4-2.7-2.8-4.2-4.2,9.8-7.2,18.1-9.8,24.4-8.5,2.8.6,5.1,1.8,6.9,3.7,1.7,1.8,3,4,3.7,6.5.7,2.5.9,5.2.7,8.1-.3,2.9-.9,5.8-2,8.8-1.3,3.6-3,7.2-5.1,10.6-2.1,3.5-4.4,6.6-6.9,9.4ZM159.8,140.5c2.9.2,6.6-.3,11.4-1.4.4-.9.7-1.7,1.1-2.6-.9-.1-1.4-.2-2.3-.3-3-.3-5.6-.3-7.6,0-2,.2-3.5.6-4.6,1.1-1,.5-1.6,1-1.7,1.5,0,.4.2.8.8,1.2.6.4,1.6.6,3,.7Z"/><path class="cls-13" d="M37.6,197.6c-1.2-6.3-2.5-14-4.4-23.2-.9-4.2-1.8-8.3-2.6-12.3-.8,0-1.2,0-2,.1,0-1.1-.2-2.1-.5-3.1-.4-1.4-1-2.9-1.9-4.4,2.3-.3,4.4-.5,6.6-.6,4.3-.2,8.2,0,11.7.7,3.5.7,6.3,1.9,8.5,3.4,2.1,1.6,3.4,3.5,3.7,5.8.5,3.3-1,6.9-4.4,10.9,2.8.5,5.1,1.6,6.9,3.3,1.8,1.7,2.8,3.6,2.9,5.7.1,2.5-.7,4.7-2.4,6.4-1.7,1.7-3.8,3.1-6.4,4.1-2.6,1-5.3,1.8-8.1,2.2-2.8.5-5.3.8-7.5.9ZM44.5,171c1.2-1.9,1.7-3.5,1.5-4.9-.2-1.2-1.1-2.1-2.7-2.8.4,2.5.8,5.1,1.2,7.7ZM47.3,187.6c1.3-.6,2.2-1.1,2.8-1.8.6-.6.9-1.2.8-1.7,0-.4-.3-.8-.8-1.1-.5-.3-1.2-.4-2.1-.4-.5,0-1,0-1.5.1.3,1.7.6,3.3.8,4.9Z"/><path class="cls-13" d="M69.1,165c-2.1,0-3.9-.5-5.4-1.6-1.6-1.1-2.5-2.5-2.8-4.1s.3-3.1,1.6-4.3c1.3-1.2,3.1-1.8,5.2-1.9,2.1,0,4,.5,5.6,1.7s2.5,2.6,2.6,4.2c.1,1.7-.5,3.1-1.8,4.2-1.3,1.2-3,1.7-5.1,1.8ZM66.2,197.7c0-1.7-.2-4.6-.5-8.7-.3-4.1-.7-8.2-1.2-12.4-.5-4.2-.9-7.3-1.2-9.4,1.9.2,3.7.3,5.5.3,2.1,0,4.3-.2,6.6-.4.3,3.6.8,8.3,1.2,14s.7,10.9,1,15.6c-4.5.4-6.8.6-11.3,1Z"/><path class="cls-13" d="M97.2,197.7c-4.3,0-7.4-1.9-9.4-5.6-1.7-3.2-2.6-7.5-2.8-12.9,0-1.7,0-3.4,0-5.2-2.4.1-4.2.3-5.4.6-.1-.7-.3-1.6-.5-2.6-.3-1-.5-1.9-.8-2.8-.3-.9-.5-1.7-.6-2.3,1.8-.4,4.4-.6,8-.9.8-5.7,1.7-10.2,2.6-13.3,4.2.9,8.1,1.6,11.8,2.1,0,.3,0,.5-.2.8-.4,2-1.1,5.3-1.9,10,2.8,0,4.2,0,7,0,1.4,0,2,0,3.4,0-.4,1.4-.5,2.8-.6,4.2,0,1.5,0,2.2,0,3.7-1.4,0-2.1,0-3.5,0-3,0-4.5,0-7.5,0-.4,3.7-.6,6.4-.6,8.3,0,1.9.1,3.3.3,4.1.2.8.5,1.3,1,1.3.4,0,.9-.4,1.5-1.1.6-.8,1.1-1.6,1.6-2.7.5-1,1-2,1.4-2.8,2.9,1.9,5.9,3.3,9.1,4.3-.1.2-.2.3-.3.6-1.5,3.6-3.3,6.5-5.5,8.7-2.3,2.3-5,3.5-8.1,3.5Z"/><path class="cls-13" d="M125.7,197.7c-2.3,0-4.4-.6-6.1-1.7-1.7-1.1-3.2-2.7-4.3-4.6s-2-4.2-2.5-6.7c-.5-2.5-.8-5.2-.7-8,0-2.9.5-5.8,1.2-8.6.7-2.8,1.8-5.4,3.2-7.7,1.4-2.3,3.2-4.2,5.3-5.5,2.1-1.4,4.5-2,7.1-2,2,0,3.7.5,5.1,1.4,1.4.9,2.5,2,3.3,3.4.8,1.4,1.4,2.9,1.6,4.6.3,1.7.3,3.3.1,5-.3,2.8-1,4.8-2,6.2-1,1.4-2.6,2.5-4.9,3.3-2.3.8-5.4,1.7-9.4,2.7.1,2,.5,3.6,1.1,4.6.6,1,1.5,1.6,2.8,1.6,1.9,0,4.4-1.3,7.8-3.8.3.8.7,1.6,1,2.4.6,1.5,1.3,2.9,2,4.2.7,1.4,1.6,2.4,2.6,3.2-5.3,4.1-10,6.1-14.4,6.1ZM122.9,172.6c3.1-.6,5.7-1.2,7.7-1.8.2-2.6,0-4.6-.6-5.9s-1.5-1.9-2.5-1.9c-1,0-2,.9-2.8,2.9-.9,1.9-1.5,4.2-1.8,6.8Z"/><path class="cls-13" d="M153,198c-3.9,0-7.6-.6-11-1.8.7-1.4,1.4-3.1,2.1-5.2.7-2,1.3-3.9,1.8-5.6,4.1.9,7.4,1.4,10,1.4,1.9,0,2.9-.3,3-.9.1-1-2.5-2.8-7.8-5.3-2.2-1.1-4.1-2.4-5.4-3.8-1.4-1.4-2.3-3-2.8-4.7-.5-1.7-.7-3.3-.5-5,.3-2.3,1.2-4.6,2.9-6.7,1.6-2.1,3.8-3.8,6.4-5,2.7-1.3,5.7-1.8,9.1-1.7,2.9.1,5.6.7,8.2,1.7,2.6,1,5.1,2.6,7.5,4.9-.1,0-.3.2-.4.3-1.6,1.1-3.1,2.2-4.6,3.4-1.4,1.2-2.7,2.5-3.8,3.9-1.1-.8-2.3-1.4-3.7-1.7-1.4-.4-2.8-.6-4-.6-1.2,0-2.2,0-3,.3-.8.2-1.3.6-1.4,1.1-.2.9,1,1.9,3.5,3,9.7,4.5,13.8,9.4,13,14.8-.5,3.2-1.6,5.8-3.5,7.7-1.8,1.9-4.1,3.3-6.8,4.2-2.7.8-5.6,1.3-8.7,1.3Z"/><path class="cls-12" d="M37.6,197.6c-1.2-6.3-2.5-14-4.4-23.2-.9-4.2-1.8-8.3-2.6-12.3-.8,0-1.2,0-2,.1,0-1.1-.2-2.1-.5-3.1-.4-1.4-1-2.9-1.9-4.4,2.3-.3,4.4-.5,6.6-.6,4.3-.2,8.2,0,11.7.7,3.5.7,6.3,1.9,8.5,3.4,2.1,1.6,3.4,3.5,3.7,5.8.5,3.3-1,6.9-4.4,10.9,2.8.5,5.1,1.6,6.9,3.3,1.8,1.7,2.8,3.6,2.9,5.7.1,2.5-.7,4.7-2.4,6.4-1.7,1.7-3.8,3.1-6.4,4.1-2.6,1-5.3,1.8-8.1,2.2-2.8.5-5.3.8-7.5.9ZM44.5,171c1.2-1.9,1.7-3.5,1.5-4.9-.2-1.2-1.1-2.1-2.7-2.8.4,2.5.8,5.1,1.2,7.7ZM47.3,187.6c1.3-.6,2.2-1.1,2.8-1.8.6-.6.9-1.2.8-1.7,0-.4-.3-.8-.8-1.1-.5-.3-1.2-.4-2.1-.4-.5,0-1,0-1.5.1.3,1.7.6,3.3.8,4.9Z"/><path class="cls-12" d="M69.1,165c-2.1,0-3.9-.5-5.4-1.6-1.6-1.1-2.5-2.5-2.8-4.1s.3-3.1,1.6-4.3c1.3-1.2,3.1-1.8,5.2-1.9,2.1,0,4,.5,5.6,1.7s2.5,2.6,2.6,4.2c.1,1.7-.5,3.1-1.8,4.2-1.3,1.2-3,1.7-5.1,1.8ZM66.2,197.7c0-1.7-.2-4.6-.5-8.7-.3-4.1-.7-8.2-1.2-12.4-.5-4.2-.9-7.3-1.2-9.4,1.9.2,3.7.3,5.5.3,2.1,0,4.3-.2,6.6-.4.3,3.6.8,8.3,1.2,14s.7,10.9,1,15.6c-4.5.4-6.8.6-11.3,1Z"/><path class="cls-12" d="M97.2,197.7c-4.3,0-7.4-1.9-9.4-5.6-1.7-3.2-2.6-7.5-2.8-12.9,0-1.7,0-3.4,0-5.2-2.4.1-4.2.3-5.4.6-.1-.7-.3-1.6-.5-2.6-.3-1-.5-1.9-.8-2.8-.3-.9-.5-1.7-.6-2.3,1.8-.4,4.4-.6,8-.9.8-5.7,1.7-10.2,2.6-13.3,4.2.9,8.1,1.6,11.8,2.1,0,.3,0,.5-.2.8-.4,2-1.1,5.3-1.9,10,2.8,0,4.2,0,7,0,1.4,0,2,0,3.4,0-.4,1.4-.5,2.8-.6,4.2,0,1.5,0,2.2,0,3.7-1.4,0-2.1,0-3.5,0-3,0-4.5,0-7.5,0-.4,3.7-.6,6.4-.6,8.3,0,1.9.1,3.3.3,4.1.2.8.5,1.3,1,1.3.4,0,.9-.4,1.5-1.1.6-.8,1.1-1.6,1.6-2.7.5-1,1-2,1.4-2.8,2.9,1.9,5.9,3.3,9.1,4.3-.1.2-.2.3-.3.6-1.5,3.6-3.3,6.5-5.5,8.7-2.3,2.3-5,3.5-8.1,3.5Z"/><path class="cls-12" d="M125.7,197.7c-2.3,0-4.4-.6-6.1-1.7-1.7-1.1-3.2-2.7-4.3-4.6s-2-4.2-2.5-6.7c-.5-2.5-.8-5.2-.7-8,0-2.9.5-5.8,1.2-8.6.7-2.8,1.8-5.4,3.2-7.7,1.4-2.3,3.2-4.2,5.3-5.5,2.1-1.4,4.5-2,7.1-2,2,0,3.7.5,5.1,1.4,1.4.9,2.5,2,3.3,3.4.8,1.4,1.4,2.9,1.6,4.6.3,1.7.3,3.3.1,5-.3,2.8-1,4.8-2,6.2-1,1.4-2.6,2.5-4.9,3.3-2.3.8-5.4,1.7-9.4,2.7.1,2,.5,3.6,1.1,4.6.6,1,1.5,1.6,2.8,1.6,1.9,0,4.4-1.3,7.8-3.8.3.8.7,1.6,1,2.4.6,1.5,1.3,2.9,2,4.2.7,1.4,1.6,2.4,2.6,3.2-5.3,4.1-10,6.1-14.4,6.1ZM122.9,172.6c3.1-.6,5.7-1.2,7.7-1.8.2-2.6,0-4.6-.6-5.9s-1.5-1.9-2.5-1.9c-1,0-2,.9-2.8,2.9-.9,1.9-1.5,4.2-1.8,6.8Z"/><path class="cls-12" d="M153,198c-3.9,0-7.6-.6-11-1.8.7-1.4,1.4-3.1,2.1-5.2.7-2,1.3-3.9,1.8-5.6,4.1.9,7.4,1.4,10,1.4,1.9,0,2.9-.3,3-.9.1-1-2.5-2.8-7.8-5.3-2.2-1.1-4.1-2.4-5.4-3.8-1.4-1.4-2.3-3-2.8-4.7-.5-1.7-.7-3.3-.5-5,.3-2.3,1.2-4.6,2.9-6.7,1.6-2.1,3.8-3.8,6.4-5,2.7-1.3,5.7-1.8,9.1-1.7,2.9.1,5.6.7,8.2,1.7,2.6,1,5.1,2.6,7.5,4.9-.1,0-.3.2-.4.3-1.6,1.1-3.1,2.2-4.6,3.4-1.4,1.2-2.7,2.5-3.8,3.9-1.1-.8-2.3-1.4-3.7-1.7-1.4-.4-2.8-.6-4-.6-1.2,0-2.2,0-3,.3-.8.2-1.3.6-1.4,1.1-.2.9,1,1.9,3.5,3,9.7,4.5,13.8,9.4,13,14.8-.5,3.2-1.6,5.8-3.5,7.7-1.8,1.9-4.1,3.3-6.8,4.2-2.7.8-5.6,1.3-8.7,1.3Z"/><path class="cls-4" d="M37.6,197.6c-1.2-6.3-2.5-14-4.4-23.2-.9-4.2-1.8-8.3-2.6-12.3-.8,0-1.2,0-2,.1,0-1.1-.2-2.1-.5-3.1-.4-1.4-1-2.9-1.9-4.4,2.3-.3,4.4-.5,6.6-.6,4.3-.2,8.2,0,11.7.7,3.5.7,6.3,1.9,8.5,3.4,2.1,1.6,3.4,3.5,3.7,5.8.5,3.3-1,6.9-4.4,10.9,2.8.5,5.1,1.6,6.9,3.3,1.8,1.7,2.8,3.6,2.9,5.7.1,2.5-.7,4.7-2.4,6.4-1.7,1.7-3.8,3.1-6.4,4.1-2.6,1-5.3,1.8-8.1,2.2-2.8.5-5.3.8-7.5.9ZM44.5,171c1.2-1.9,1.7-3.5,1.5-4.9-.2-1.2-1.1-2.1-2.7-2.8.4,2.5.8,5.1,1.2,7.7ZM47.3,187.6c1.3-.6,2.2-1.1,2.8-1.8.6-.6.9-1.2.8-1.7,0-.4-.3-.8-.8-1.1-.5-.3-1.2-.4-2.1-.4-.5,0-1,0-1.5.1.3,1.7.6,3.3.8,4.9Z"/><path class="cls-4" d="M69.1,165c-2.1,0-3.9-.5-5.4-1.6-1.6-1.1-2.5-2.5-2.8-4.1s.3-3.1,1.6-4.3c1.3-1.2,3.1-1.8,5.2-1.9,2.1,0,4,.5,5.6,1.7s2.5,2.6,2.6,4.2c.1,1.7-.5,3.1-1.8,4.2-1.3,1.2-3,1.7-5.1,1.8ZM66.2,197.7c0-1.7-.2-4.6-.5-8.7-.3-4.1-.7-8.2-1.2-12.4-.5-4.2-.9-7.3-1.2-9.4,1.9.2,3.7.3,5.5.3,2.1,0,4.3-.2,6.6-.4.3,3.6.8,8.3,1.2,14s.7,10.9,1,15.6c-4.5.4-6.8.6-11.3,1Z"/><path class="cls-4" d="M97.2,197.7c-4.3,0-7.4-1.9-9.4-5.6-1.7-3.2-2.6-7.5-2.8-12.9,0-1.7,0-3.4,0-5.2-2.4.1-4.2.3-5.4.6-.1-.7-.3-1.6-.5-2.6-.3-1-.5-1.9-.8-2.8-.3-.9-.5-1.7-.6-2.3,1.8-.4,4.4-.6,8-.9.8-5.7,1.7-10.2,2.6-13.3,4.2.9,8.1,1.6,11.8,2.1,0,.3,0,.5-.2.8-.4,2-1.1,5.3-1.9,10,2.8,0,4.2,0,7,0,1.4,0,2,0,3.4,0-.4,1.4-.5,2.8-.6,4.2,0,1.5,0,2.2,0,3.7-1.4,0-2.1,0-3.5,0-3,0-4.5,0-7.5,0-.4,3.7-.6,6.4-.6,8.3,0,1.9.1,3.3.3,4.1.2.8.5,1.3,1,1.3.4,0,.9-.4,1.5-1.1.6-.8,1.1-1.6,1.6-2.7.5-1,1-2,1.4-2.8,2.9,1.9,5.9,3.3,9.1,4.3-.1.2-.2.3-.3.6-1.5,3.6-3.3,6.5-5.5,8.7-2.3,2.3-5,3.5-8.1,3.5Z"/><path class="cls-4" d="M125.7,197.7c-2.3,0-4.4-.6-6.1-1.7-1.7-1.1-3.2-2.7-4.3-4.6s-2-4.2-2.5-6.7c-.5-2.5-.8-5.2-.7-8,0-2.9.5-5.8,1.2-8.6.7-2.8,1.8-5.4,3.2-7.7,1.4-2.3,3.2-4.2,5.3-5.5,2.1-1.4,4.5-2,7.1-2,2,0,3.7.5,5.1,1.4,1.4.9,2.5,2,3.3,3.4.8,1.4,1.4,2.9,1.6,4.6.3,1.7.3,3.3.1,5-.3,2.8-1,4.8-2,6.2-1,1.4-2.6,2.5-4.9,3.3-2.3.8-5.4,1.7-9.4,2.7.1,2,.5,3.6,1.1,4.6.6,1,1.5,1.6,2.8,1.6,1.9,0,4.4-1.3,7.8-3.8.3.8.7,1.6,1,2.4.6,1.5,1.3,2.9,2,4.2.7,1.4,1.6,2.4,2.6,3.2-5.3,4.1-10,6.1-14.4,6.1ZM122.9,172.6c3.1-.6,5.7-1.2,7.7-1.8.2-2.6,0-4.6-.6-5.9s-1.5-1.9-2.5-1.9c-1,0-2,.9-2.8,2.9-.9,1.9-1.5,4.2-1.8,6.8Z"/><path class="cls-4" d="M153,198c-3.9,0-7.6-.6-11-1.8.7-1.4,1.4-3.1,2.1-5.2.7-2,1.3-3.9,1.8-5.6,4.1.9,7.4,1.4,10,1.4,1.9,0,2.9-.3,3-.9.1-1-2.5-2.8-7.8-5.3-2.2-1.1-4.1-2.4-5.4-3.8-1.4-1.4-2.3-3-2.8-4.7-.5-1.7-.7-3.3-.5-5,.3-2.3,1.2-4.6,2.9-6.7,1.6-2.1,3.8-3.8,6.4-5,2.7-1.3,5.7-1.8,9.1-1.7,2.9.1,5.6.7,8.2,1.7,2.6,1,5.1,2.6,7.5,4.9-.1,0-.3.2-.4.3-1.6,1.1-3.1,2.2-4.6,3.4-1.4,1.2-2.7,2.5-3.8,3.9-1.1-.8-2.3-1.4-3.7-1.7-1.4-.4-2.8-.6-4-.6-1.2,0-2.2,0-3,.3-.8.2-1.3.6-1.4,1.1-.2.9,1,1.9,3.5,3,9.7,4.5,13.8,9.4,13,14.8-.5,3.2-1.6,5.8-3.5,7.7-1.8,1.9-4.1,3.3-6.8,4.2-2.7.8-5.6,1.3-8.7,1.3Z"/><path class="cls-13" d="M33.1,194.7c-1.4-6.3-3.1-14-5.3-23-1-4.2-2.1-8.3-3-12.2-.8,0-1.2,0-2.1.1,0-1.1-.3-2.1-.6-3-.5-1.4-1.1-2.8-2.1-4.3,2.3-.4,4.5-.6,6.7-.7,4.4-.3,8.4,0,11.9.6,3.6.7,6.5,1.8,8.7,3.3,2.2,1.5,3.5,3.5,3.9,5.7.6,3.3-.8,7-4.2,10.9,2.9.5,5.2,1.6,7.1,3.3,1.8,1.7,2.9,3.6,3,5.7.2,2.5-.6,4.7-2.2,6.4-1.6,1.7-3.7,3.1-6.4,4.1-2.6,1-5.3,1.7-8.1,2.2-2.8.5-5.3.8-7.5.9ZM39.2,168.1c1.2-1.9,1.7-3.5,1.4-4.9-.3-1.1-1.2-2.1-2.8-2.7.4,2.5.9,5,1.4,7.6ZM42.5,184.7c1.3-.6,2.2-1.1,2.8-1.8s.8-1.2.8-1.7c0-.4-.3-.8-.9-1.1-.5-.3-1.2-.4-2.2-.4-.5,0-1,0-1.5.1.3,1.7.7,3.3,1,4.9Z"/><path class="cls-13" d="M64,162c-2.1,0-3.9-.5-5.6-1.6-1.6-1.1-2.6-2.5-2.9-4.1-.3-1.6.2-3.1,1.5-4.3,1.3-1.2,3.1-1.9,5.3-1.9,2.2,0,4.1.5,5.7,1.6,1.7,1.2,2.6,2.6,2.8,4.2.2,1.7-.4,3.1-1.7,4.3-1.3,1.2-3,1.8-5.1,1.8ZM61.8,194.8c0-1.7-.3-4.6-.7-8.7-.4-4.1-.9-8.2-1.5-12.4-.6-4.2-1.1-7.4-1.5-9.4,1.9.2,3.8.3,5.6.2,2.2,0,4.4-.2,6.6-.5.4,3.6,1,8.3,1.5,14.1.5,5.8.9,11,1.2,15.6-4.5.4-6.8.6-11.3,1Z"/><path class="cls-13" d="M92.8,194.8c-4.3,0-7.4-1.9-9.5-5.6-1.7-3.2-2.7-7.5-3-13,0-1.7-.1-3.5,0-5.2-2.4.1-4.2.3-5.4.6-.1-.8-.3-1.6-.6-2.6s-.6-1.9-.8-2.9c-.3-.9-.5-1.7-.7-2.3,1.8-.4,4.5-.7,8.1-.9.7-5.7,1.5-10.3,2.4-13.4,4.3.9,8.2,1.5,12,2,0,.3,0,.5-.2.8-.4,2-1,5.4-1.7,10.1,2.8,0,4.2,0,7,0,1.4,0,2,0,3.4,0-.3,1.4-.5,2.8-.5,4.3,0,1.5,0,2.3,0,3.8-1.4,0-2.1,0-3.5,0-3,0-4.5,0-7.6,0-.4,3.7-.6,6.5-.5,8.4,0,1.9.2,3.3.4,4.1.2.8.5,1.3,1,1.3.4,0,.9-.4,1.5-1.1.5-.8,1.1-1.7,1.6-2.7s1-2,1.4-2.8c3,1.9,6,3.3,9.2,4.3-.1.2-.2.3-.3.6-1.5,3.6-3.3,6.5-5.5,8.7-2.3,2.3-5,3.5-8.1,3.5Z"/><path class="cls-13" d="M121.4,194.7c-2.3,0-4.4-.6-6.1-1.7-1.7-1.1-3.2-2.7-4.3-4.6s-2-4.2-2.5-6.7c-.5-2.5-.8-5.2-.8-8,0-2.9.4-5.8,1.1-8.7.7-2.9,1.7-5.5,3.2-7.8,1.4-2.3,3.2-4.2,5.2-5.6,2.1-1.4,4.5-2.1,7.1-2,2,0,3.7.5,5.1,1.4,1.4.9,2.5,2,3.4,3.4.8,1.4,1.4,2.9,1.7,4.6.3,1.7.4,3.3.2,5-.3,2.8-1,4.9-2,6.3-1,1.4-2.7,2.5-4.9,3.3-2.3.8-5.4,1.7-9.4,2.7.1,2.1.5,3.6,1.1,4.6.6,1.1,1.6,1.6,2.8,1.6,1.9,0,4.5-1.2,7.9-3.8.3.8.7,1.6,1,2.4.6,1.5,1.3,2.9,2,4.2.7,1.4,1.6,2.4,2.5,3.2-5.4,4.1-10.1,6.1-14.4,6.1ZM118.5,169.6c3.1-.6,5.7-1.2,7.8-1.8.2-2.7,0-4.7-.7-6s-1.5-2-2.5-2c-1,0-2,1-2.8,2.9-.9,1.9-1.4,4.3-1.8,6.9Z"/><path class="cls-13" d="M148.6,195c-3.9,0-7.6-.6-11-1.8.7-1.4,1.4-3.1,2.1-5.2.7-2,1.3-3.9,1.8-5.6,4.1.9,7.4,1.4,10,1.4,1.9,0,2.9-.3,3-.9.1-1-2.5-2.8-7.8-5.3-2.3-1.1-4.1-2.4-5.5-3.8-1.4-1.5-2.3-3-2.9-4.7-.5-1.7-.7-3.4-.5-5.1.3-2.4,1.2-4.6,2.8-6.7,1.6-2.1,3.7-3.8,6.4-5.1,2.7-1.3,5.7-1.8,9.2-1.7,2.9.1,5.7.7,8.3,1.7,2.6,1,5.2,2.7,7.6,4.9-.1,0-.2.2-.4.3-1.6,1.1-3.1,2.2-4.6,3.4-1.4,1.2-2.7,2.5-3.8,3.9-1.1-.8-2.3-1.4-3.8-1.8-1.4-.4-2.8-.6-4.1-.6-1.2,0-2.2,0-3,.3-.8.2-1.3.6-1.4,1.1-.2.9,1.1,1.9,3.6,3.1,9.8,4.6,13.9,9.5,13,14.9-.5,3.2-1.7,5.7-3.6,7.7-1.9,1.9-4.2,3.3-6.9,4.1-2.8.8-5.7,1.3-8.8,1.3Z"/><path class="cls-12" d="M33.1,194.7c-1.4-6.3-3.1-14-5.3-23-1-4.2-2.1-8.3-3-12.2-.8,0-1.2,0-2.1.1,0-1.1-.3-2.1-.6-3-.5-1.4-1.1-2.8-2.1-4.3,2.3-.4,4.5-.6,6.7-.7,4.4-.3,8.4,0,11.9.6,3.6.7,6.5,1.8,8.7,3.3,2.2,1.5,3.5,3.5,3.9,5.7.6,3.3-.8,7-4.2,10.9,2.9.5,5.2,1.6,7.1,3.3,1.8,1.7,2.9,3.6,3,5.7.2,2.5-.6,4.7-2.2,6.4-1.6,1.7-3.7,3.1-6.4,4.1-2.6,1-5.3,1.7-8.1,2.2-2.8.5-5.3.8-7.5.9ZM39.2,168.1c1.2-1.9,1.7-3.5,1.4-4.9-.3-1.1-1.2-2.1-2.8-2.7.4,2.5.9,5,1.4,7.6ZM42.5,184.7c1.3-.6,2.2-1.1,2.8-1.8s.8-1.2.8-1.7c0-.4-.3-.8-.9-1.1-.5-.3-1.2-.4-2.2-.4-.5,0-1,0-1.5.1.3,1.7.7,3.3,1,4.9Z"/><path class="cls-12" d="M64,162c-2.1,0-3.9-.5-5.6-1.6-1.6-1.1-2.6-2.5-2.9-4.1-.3-1.6.2-3.1,1.5-4.3,1.3-1.2,3.1-1.9,5.3-1.9,2.2,0,4.1.5,5.7,1.6,1.7,1.2,2.6,2.6,2.8,4.2.2,1.7-.4,3.1-1.7,4.3-1.3,1.2-3,1.8-5.1,1.8ZM61.8,194.8c0-1.7-.3-4.6-.7-8.7-.4-4.1-.9-8.2-1.5-12.4-.6-4.2-1.1-7.4-1.5-9.4,1.9.2,3.8.3,5.6.2,2.2,0,4.4-.2,6.6-.5.4,3.6,1,8.3,1.5,14.1.5,5.8.9,11,1.2,15.6-4.5.4-6.8.6-11.3,1Z"/><path class="cls-12" d="M92.8,194.8c-4.3,0-7.4-1.9-9.5-5.6-1.7-3.2-2.7-7.5-3-13,0-1.7-.1-3.5,0-5.2-2.4.1-4.2.3-5.4.6-.1-.8-.3-1.6-.6-2.6s-.6-1.9-.8-2.9c-.3-.9-.5-1.7-.7-2.3,1.8-.4,4.5-.7,8.1-.9.7-5.7,1.5-10.3,2.4-13.4,4.3.9,8.2,1.5,12,2,0,.3,0,.5-.2.8-.4,2-1,5.4-1.7,10.1,2.8,0,4.2,0,7,0,1.4,0,2,0,3.4,0-.3,1.4-.5,2.8-.5,4.3,0,1.5,0,2.3,0,3.8-1.4,0-2.1,0-3.5,0-3,0-4.5,0-7.6,0-.4,3.7-.6,6.5-.5,8.4,0,1.9.2,3.3.4,4.1.2.8.5,1.3,1,1.3.4,0,.9-.4,1.5-1.1.5-.8,1.1-1.7,1.6-2.7s1-2,1.4-2.8c3,1.9,6,3.3,9.2,4.3-.1.2-.2.3-.3.6-1.5,3.6-3.3,6.5-5.5,8.7-2.3,2.3-5,3.5-8.1,3.5Z"/><path class="cls-12" d="M121.4,194.7c-2.3,0-4.4-.6-6.1-1.7-1.7-1.1-3.2-2.7-4.3-4.6s-2-4.2-2.5-6.7c-.5-2.5-.8-5.2-.8-8,0-2.9.4-5.8,1.1-8.7.7-2.9,1.7-5.5,3.2-7.8,1.4-2.3,3.2-4.2,5.2-5.6,2.1-1.4,4.5-2.1,7.1-2,2,0,3.7.5,5.1,1.4,1.4.9,2.5,2,3.4,3.4.8,1.4,1.4,2.9,1.7,4.6.3,1.7.4,3.3.2,5-.3,2.8-1,4.9-2,6.3-1,1.4-2.7,2.5-4.9,3.3-2.3.8-5.4,1.7-9.4,2.7.1,2.1.5,3.6,1.1,4.6.6,1.1,1.6,1.6,2.8,1.6,1.9,0,4.5-1.2,7.9-3.8.3.8.7,1.6,1,2.4.6,1.5,1.3,2.9,2,4.2.7,1.4,1.6,2.4,2.5,3.2-5.4,4.1-10.1,6.1-14.4,6.1ZM118.5,169.6c3.1-.6,5.7-1.2,7.8-1.8.2-2.7,0-4.7-.7-6s-1.5-2-2.5-2c-1,0-2,1-2.8,2.9-.9,1.9-1.4,4.3-1.8,6.9Z"/><path class="cls-12" d="M148.6,195c-3.9,0-7.6-.6-11-1.8.7-1.4,1.4-3.1,2.1-5.2.7-2,1.3-3.9,1.8-5.6,4.1.9,7.4,1.4,10,1.4,1.9,0,2.9-.3,3-.9.1-1-2.5-2.8-7.8-5.3-2.3-1.1-4.1-2.4-5.5-3.8-1.4-1.5-2.3-3-2.9-4.7-.5-1.7-.7-3.4-.5-5.1.3-2.4,1.2-4.6,2.8-6.7,1.6-2.1,3.7-3.8,6.4-5.1,2.7-1.3,5.7-1.8,9.2-1.7,2.9.1,5.7.7,8.3,1.7,2.6,1,5.2,2.7,7.6,4.9-.1,0-.2.2-.4.3-1.6,1.1-3.1,2.2-4.6,3.4-1.4,1.2-2.7,2.5-3.8,3.9-1.1-.8-2.3-1.4-3.8-1.8-1.4-.4-2.8-.6-4.1-.6-1.2,0-2.2,0-3,.3-.8.2-1.3.6-1.4,1.1-.2.9,1.1,1.9,3.6,3.1,9.8,4.6,13.9,9.5,13,14.9-.5,3.2-1.7,5.7-3.6,7.7-1.9,1.9-4.2,3.3-6.9,4.1-2.8.8-5.7,1.3-8.8,1.3Z"/><path class="cls-3" d="M33.1,194.7c-1.4-6.3-3.1-14-5.3-23-1-4.2-2.1-8.3-3-12.2-.8,0-1.2,0-2.1.1,0-1.1-.3-2.1-.6-3-.5-1.4-1.1-2.8-2.1-4.3,2.3-.4,4.5-.6,6.7-.7,4.4-.3,8.4,0,11.9.6,3.6.7,6.5,1.8,8.7,3.3,2.2,1.5,3.5,3.5,3.9,5.7.6,3.3-.8,7-4.2,10.9,2.9.5,5.2,1.6,7.1,3.3,1.8,1.7,2.9,3.6,3,5.7.2,2.5-.6,4.7-2.2,6.4-1.6,1.7-3.7,3.1-6.4,4.1-2.6,1-5.3,1.7-8.1,2.2-2.8.5-5.3.8-7.5.9ZM39.2,168.1c1.2-1.9,1.7-3.5,1.4-4.9-.3-1.1-1.2-2.1-2.8-2.7.4,2.5.9,5,1.4,7.6ZM42.5,184.7c1.3-.6,2.2-1.1,2.8-1.8s.8-1.2.8-1.7c0-.4-.3-.8-.9-1.1-.5-.3-1.2-.4-2.2-.4-.5,0-1,0-1.5.1.3,1.7.7,3.3,1,4.9Z"/><path class="cls-3" d="M64,162c-2.1,0-3.9-.5-5.6-1.6-1.6-1.1-2.6-2.5-2.9-4.1-.3-1.6.2-3.1,1.5-4.3,1.3-1.2,3.1-1.9,5.3-1.9,2.2,0,4.1.5,5.7,1.6,1.7,1.2,2.6,2.6,2.8,4.2.2,1.7-.4,3.1-1.7,4.3-1.3,1.2-3,1.8-5.1,1.8ZM61.8,194.8c0-1.7-.3-4.6-.7-8.7-.4-4.1-.9-8.2-1.5-12.4-.6-4.2-1.1-7.4-1.5-9.4,1.9.2,3.8.3,5.6.2,2.2,0,4.4-.2,6.6-.5.4,3.6,1,8.3,1.5,14.1.5,5.8.9,11,1.2,15.6-4.5.4-6.8.6-11.3,1Z"/><path class="cls-3" d="M92.8,194.8c-4.3,0-7.4-1.9-9.5-5.6-1.7-3.2-2.7-7.5-3-13,0-1.7-.1-3.5,0-5.2-2.4.1-4.2.3-5.4.6-.1-.8-.3-1.6-.6-2.6s-.6-1.9-.8-2.9c-.3-.9-.5-1.7-.7-2.3,1.8-.4,4.5-.7,8.1-.9.7-5.7,1.5-10.3,2.4-13.4,4.3.9,8.2,1.5,12,2,0,.3,0,.5-.2.8-.4,2-1,5.4-1.7,10.1,2.8,0,4.2,0,7,0,1.4,0,2,0,3.4,0-.3,1.4-.5,2.8-.5,4.3,0,1.5,0,2.3,0,3.8-1.4,0-2.1,0-3.5,0-3,0-4.5,0-7.6,0-.4,3.7-.6,6.5-.5,8.4,0,1.9.2,3.3.4,4.1.2.8.5,1.3,1,1.3.4,0,.9-.4,1.5-1.1.5-.8,1.1-1.7,1.6-2.7s1-2,1.4-2.8c3,1.9,6,3.3,9.2,4.3-.1.2-.2.3-.3.6-1.5,3.6-3.3,6.5-5.5,8.7-2.3,2.3-5,3.5-8.1,3.5Z"/><path class="cls-3" d="M121.4,194.7c-2.3,0-4.4-.6-6.1-1.7-1.7-1.1-3.2-2.7-4.3-4.6s-2-4.2-2.5-6.7c-.5-2.5-.8-5.2-.8-8,0-2.9.4-5.8,1.1-8.7.7-2.9,1.7-5.5,3.2-7.8,1.4-2.3,3.2-4.2,5.2-5.6,2.1-1.4,4.5-2.1,7.1-2,2,0,3.7.5,5.1,1.4,1.4.9,2.5,2,3.4,3.4.8,1.4,1.4,2.9,1.7,4.6.3,1.7.4,3.3.2,5-.3,2.8-1,4.9-2,6.3-1,1.4-2.7,2.5-4.9,3.3-2.3.8-5.4,1.7-9.4,2.7.1,2.1.5,3.6,1.1,4.6.6,1.1,1.6,1.6,2.8,1.6,1.9,0,4.5-1.2,7.9-3.8.3.8.7,1.6,1,2.4.6,1.5,1.3,2.9,2,4.2.7,1.4,1.6,2.4,2.5,3.2-5.4,4.1-10.1,6.1-14.4,6.1ZM118.5,169.6c3.1-.6,5.7-1.2,7.8-1.8.2-2.7,0-4.7-.7-6s-1.5-2-2.5-2c-1,0-2,1-2.8,2.9-.9,1.9-1.4,4.3-1.8,6.9Z"/><path class="cls-3" d="M148.6,195c-3.9,0-7.6-.6-11-1.8.7-1.4,1.4-3.1,2.1-5.2.7-2,1.3-3.9,1.8-5.6,4.1.9,7.4,1.4,10,1.4,1.9,0,2.9-.3,3-.9.1-1-2.5-2.8-7.8-5.3-2.3-1.1-4.1-2.4-5.5-3.8-1.4-1.5-2.3-3-2.9-4.7-.5-1.7-.7-3.4-.5-5.1.3-2.4,1.2-4.6,2.8-6.7,1.6-2.1,3.7-3.8,6.4-5.1,2.7-1.3,5.7-1.8,9.2-1.7,2.9.1,5.7.7,8.3,1.7,2.6,1,5.2,2.7,7.6,4.9-.1,0-.2.2-.4.3-1.6,1.1-3.1,2.2-4.6,3.4-1.4,1.2-2.7,2.5-3.8,3.9-1.1-.8-2.3-1.4-3.8-1.8-1.4-.4-2.8-.6-4.1-.6-1.2,0-2.2,0-3,.3-.8.2-1.3.6-1.4,1.1-.2.9,1.1,1.9,3.6,3.1,9.8,4.6,13.9,9.5,13,14.9-.5,3.2-1.7,5.7-3.6,7.7-1.9,1.9-4.2,3.3-6.9,4.1-2.8.8-5.7,1.3-8.8,1.3Z"/></g></svg>